<svg width="280" height="280" viewBox="0 0 280 280" fill="none" xmlns="http://www.w3.org/2000/svg">
<mask id="path-1-outside-1_16_4" maskUnits="userSpaceOnUse" x="107" y="90" width="66" height="99" fill="black">
<rect fill="white" x="107" y="90" width="66" height="99"/>
<path d="M140.091 187.273C134.091 187.273 128.742 186.242 124.045 184.182C119.379 182.121 115.667 179.258 112.909 175.591C110.182 171.894 108.697 167.606 108.455 162.727H119.909C120.152 165.727 121.182 168.318 123 170.5C124.818 172.652 127.197 174.318 130.136 175.5C133.076 176.682 136.333 177.273 139.909 177.273C143.909 177.273 147.455 176.576 150.545 175.182C153.636 173.788 156.061 171.848 157.818 169.364C159.576 166.879 160.455 164 160.455 160.727C160.455 157.303 159.606 154.288 157.909 151.682C156.212 149.045 153.727 146.985 150.455 145.5C147.182 144.015 143.182 143.273 138.455 143.273H131V133.273H138.455C142.152 133.273 145.394 132.606 148.182 131.273C151 129.939 153.197 128.061 154.773 125.636C156.379 123.212 157.182 120.364 157.182 117.091C157.182 113.939 156.485 111.197 155.091 108.864C153.697 106.53 151.727 104.712 149.182 103.409C146.667 102.106 143.697 101.455 140.273 101.455C137.061 101.455 134.03 102.045 131.182 103.227C128.364 104.379 126.061 106.061 124.273 108.273C122.485 110.455 121.515 113.091 121.364 116.182H110.455C110.636 111.303 112.106 107.03 114.864 103.364C117.621 99.6667 121.227 96.7879 125.682 94.7273C130.167 92.6667 135.091 91.6364 140.455 91.6364C146.212 91.6364 151.152 92.803 155.273 95.1364C159.394 97.4394 162.561 100.485 164.773 104.273C166.985 108.061 168.091 112.152 168.091 116.545C168.091 121.788 166.712 126.258 163.955 129.955C161.227 133.652 157.515 136.212 152.818 137.636V138.364C158.697 139.333 163.288 141.833 166.591 145.864C169.894 149.864 171.545 154.818 171.545 160.727C171.545 165.788 170.167 170.333 167.409 174.364C164.682 178.364 160.955 181.515 156.227 183.818C151.5 186.121 146.121 187.273 140.091 187.273Z"/>
</mask>
<path d="M140.091 187.273C134.091 187.273 128.742 186.242 124.045 184.182C119.379 182.121 115.667 179.258 112.909 175.591C110.182 171.894 108.697 167.606 108.455 162.727H119.909C120.152 165.727 121.182 168.318 123 170.5C124.818 172.652 127.197 174.318 130.136 175.5C133.076 176.682 136.333 177.273 139.909 177.273C143.909 177.273 147.455 176.576 150.545 175.182C153.636 173.788 156.061 171.848 157.818 169.364C159.576 166.879 160.455 164 160.455 160.727C160.455 157.303 159.606 154.288 157.909 151.682C156.212 149.045 153.727 146.985 150.455 145.5C147.182 144.015 143.182 143.273 138.455 143.273H131V133.273H138.455C142.152 133.273 145.394 132.606 148.182 131.273C151 129.939 153.197 128.061 154.773 125.636C156.379 123.212 157.182 120.364 157.182 117.091C157.182 113.939 156.485 111.197 155.091 108.864C153.697 106.53 151.727 104.712 149.182 103.409C146.667 102.106 143.697 101.455 140.273 101.455C137.061 101.455 134.03 102.045 131.182 103.227C128.364 104.379 126.061 106.061 124.273 108.273C122.485 110.455 121.515 113.091 121.364 116.182H110.455C110.636 111.303 112.106 107.03 114.864 103.364C117.621 99.6667 121.227 96.7879 125.682 94.7273C130.167 92.6667 135.091 91.6364 140.455 91.6364C146.212 91.6364 151.152 92.803 155.273 95.1364C159.394 97.4394 162.561 100.485 164.773 104.273C166.985 108.061 168.091 112.152 168.091 116.545C168.091 121.788 166.712 126.258 163.955 129.955C161.227 133.652 157.515 136.212 152.818 137.636V138.364C158.697 139.333 163.288 141.833 166.591 145.864C169.894 149.864 171.545 154.818 171.545 160.727C171.545 165.788 170.167 170.333 167.409 174.364C164.682 178.364 160.955 181.515 156.227 183.818C151.5 186.121 146.121 187.273 140.091 187.273Z" fill="black"/>
<path d="M124.045 184.182L123.642 185.097L123.644 185.098L124.045 184.182ZM112.909 175.591L112.104 176.185L112.11 176.192L112.909 175.591ZM108.455 162.727V161.727H107.404L107.456 162.777L108.455 162.727ZM119.909 162.727L120.906 162.647L120.832 161.727H119.909V162.727ZM123 170.5L122.232 171.14L122.236 171.145L123 170.5ZM130.136 175.5L129.763 176.428L129.763 176.428L130.136 175.5ZM157.818 169.364L157.002 168.786L157.002 168.786L157.818 169.364ZM157.909 151.682L157.068 152.223L157.071 152.227L157.909 151.682ZM150.455 145.5L150.041 146.411L150.041 146.411L150.455 145.5ZM131 143.273H130V144.273H131V143.273ZM131 133.273V132.273H130V133.273H131ZM148.182 131.273L147.754 130.369L147.75 130.371L148.182 131.273ZM154.773 125.636L153.939 125.084L153.934 125.091L154.773 125.636ZM155.091 108.864L155.949 108.351L155.949 108.351L155.091 108.864ZM149.182 103.409L148.722 104.297L148.726 104.299L149.182 103.409ZM131.182 103.227L131.56 104.153L131.565 104.151L131.182 103.227ZM124.273 108.273L125.046 108.907L125.05 108.901L124.273 108.273ZM121.364 116.182V117.182H122.316L122.362 116.231L121.364 116.182ZM110.455 116.182L109.455 116.145L109.417 117.182H110.455V116.182ZM114.864 103.364L115.663 103.965L115.665 103.962L114.864 103.364ZM125.682 94.7273L125.264 93.8186L125.262 93.8197L125.682 94.7273ZM155.273 95.1364L154.78 96.0066L154.785 96.0093L155.273 95.1364ZM164.773 104.273L163.909 104.777L163.909 104.777L164.773 104.273ZM163.955 129.955L163.153 129.357L163.15 129.361L163.955 129.955ZM152.818 137.636L152.528 136.679L151.818 136.895V137.636H152.818ZM152.818 138.364H151.818V139.212L152.655 139.35L152.818 138.364ZM166.591 145.864L165.817 146.498L165.82 146.5L166.591 145.864ZM167.409 174.364L166.584 173.799L166.583 173.8L167.409 174.364ZM156.227 183.818L156.665 184.717L156.665 184.717L156.227 183.818ZM140.091 187.273V186.273C134.206 186.273 128.998 185.262 124.447 183.266L124.045 184.182L123.644 185.098C128.487 187.222 133.976 188.273 140.091 188.273V187.273ZM124.045 184.182L124.449 183.267C119.921 181.268 116.352 178.505 113.708 174.99L112.909 175.591L112.11 176.192C114.981 180.01 118.836 182.975 123.642 185.097L124.045 184.182ZM112.909 175.591L113.714 174.997C111.111 171.469 109.687 167.373 109.453 162.678L108.455 162.727L107.456 162.777C107.707 167.839 109.253 172.319 112.104 176.185L112.909 175.591ZM108.455 162.727V163.727H119.909V162.727V161.727H108.455V162.727ZM119.909 162.727L118.912 162.808C119.17 166 120.273 168.79 122.232 171.14L123 170.5L123.768 169.86C122.09 167.846 121.133 165.454 120.906 162.647L119.909 162.727ZM123 170.5L122.236 171.145C124.172 173.436 126.692 175.193 129.763 176.428L130.136 175.5L130.509 174.572C127.702 173.444 125.464 171.867 123.764 169.855L123 170.5ZM130.136 175.5L129.763 176.428C132.836 177.663 136.222 178.273 139.909 178.273V177.273V176.273C136.445 176.273 133.316 175.701 130.509 174.572L130.136 175.5ZM139.909 177.273V178.273C144.026 178.273 147.715 177.555 150.957 176.093L150.545 175.182L150.134 174.27C147.194 175.596 143.793 176.273 139.909 176.273V177.273ZM150.545 175.182L150.957 176.093C154.191 174.635 156.763 172.588 158.635 169.941L157.818 169.364L157.002 168.786C155.359 171.109 153.082 172.941 150.134 174.27L150.545 175.182ZM157.818 169.364L158.635 169.941C160.521 167.274 161.455 164.19 161.455 160.727H160.455H159.455C159.455 163.81 158.631 166.483 157.002 168.786L157.818 169.364ZM160.455 160.727H161.455C161.455 157.13 160.56 153.921 158.747 151.136L157.909 151.682L157.071 152.227C158.652 154.655 159.455 157.476 159.455 160.727H160.455ZM157.909 151.682L158.75 151.141C156.934 148.32 154.289 146.142 150.868 144.589L150.455 145.5L150.041 146.411C153.165 147.828 155.49 149.771 157.068 152.223L157.909 151.682ZM150.455 145.5L150.868 144.589C147.431 143.03 143.281 142.273 138.455 142.273V143.273V144.273C143.082 144.273 146.933 145 150.041 146.411L150.455 145.5ZM138.455 143.273V142.273H131V143.273V144.273H138.455V143.273ZM131 143.273H132V133.273H131H130V143.273H131ZM131 133.273V134.273H138.455V133.273V132.273H131V133.273ZM138.455 133.273V134.273C142.272 134.273 145.667 133.584 148.613 132.175L148.182 131.273L147.75 130.371C145.121 131.628 142.031 132.273 138.455 132.273V133.273ZM148.182 131.273L148.609 132.177C151.582 130.771 153.926 128.773 155.611 126.181L154.773 125.636L153.934 125.091C152.467 127.348 150.418 129.108 147.754 130.369L148.182 131.273ZM154.773 125.636L155.606 126.189C157.334 123.581 158.182 120.535 158.182 117.091H157.182H156.182C156.182 120.193 155.423 122.844 153.939 125.084L154.773 125.636ZM157.182 117.091H158.182C158.182 113.788 157.45 110.862 155.949 108.351L155.091 108.864L154.232 109.376C155.52 111.531 156.182 114.091 156.182 117.091H157.182ZM155.091 108.864L155.949 108.351C154.454 105.848 152.341 103.903 149.637 102.519L149.182 103.409L148.726 104.299C151.114 105.521 152.94 107.213 154.232 109.376L155.091 108.864ZM149.182 103.409L149.642 102.521C146.958 101.131 143.824 100.455 140.273 100.455V101.455V102.455C143.57 102.455 146.376 103.081 148.722 104.297L149.182 103.409ZM140.273 101.455V100.455C136.935 100.455 133.774 101.069 130.799 102.304L131.182 103.227L131.565 104.151C134.287 103.022 137.187 102.455 140.273 102.455V101.455ZM131.182 103.227L130.804 102.302C127.841 103.512 125.396 105.292 123.495 107.644L124.273 108.273L125.05 108.901C126.725 106.83 128.887 105.245 131.56 104.153L131.182 103.227ZM124.273 108.273L123.499 107.639C121.562 110.003 120.526 112.85 120.365 116.133L121.364 116.182L122.362 116.231C122.505 113.332 123.407 110.906 125.046 108.907L124.273 108.273ZM121.364 116.182V115.182H110.455V116.182V117.182H121.364V116.182ZM110.455 116.182L111.454 116.219C111.629 111.53 113.036 107.458 115.663 103.965L114.864 103.364L114.064 102.763C111.176 106.603 109.644 111.076 109.455 116.145L110.455 116.182ZM114.864 103.364L115.665 103.962C118.317 100.406 121.788 97.6302 126.102 95.6349L125.682 94.7273L125.262 93.8197C120.666 95.9455 116.926 98.9268 114.062 102.766L114.864 103.364ZM125.682 94.7273L126.099 95.6359C130.442 93.6406 135.222 92.6364 140.455 92.6364V91.6364V90.6364C134.959 90.6364 129.891 91.6927 125.264 93.8186L125.682 94.7273ZM140.455 91.6364V92.6364C146.077 92.6364 150.838 93.7749 154.78 96.0066L155.273 95.1364L155.765 94.2662C151.465 91.8312 146.348 90.6364 140.455 90.6364V91.6364ZM155.273 95.1364L154.785 96.0093C158.763 98.2321 161.794 101.155 163.909 104.777L164.773 104.273L165.636 103.768C163.327 99.8146 160.025 96.6467 155.761 94.2634L155.273 95.1364ZM164.773 104.273L163.909 104.777C166.032 108.412 167.091 112.328 167.091 116.545H168.091H169.091C169.091 111.975 167.938 107.71 165.636 103.768L164.773 104.273ZM168.091 116.545H167.091C167.091 121.603 165.764 125.856 163.153 129.357L163.955 129.955L164.756 130.552C167.66 126.66 169.091 121.973 169.091 116.545H168.091ZM163.955 129.955L163.15 129.361C160.559 132.872 157.034 135.313 152.528 136.679L152.818 137.636L153.108 138.593C157.997 137.111 161.895 134.431 164.759 130.548L163.955 129.955ZM152.818 137.636H151.818V138.364H152.818H153.818V137.636H152.818ZM152.818 138.364L152.655 139.35C158.331 140.287 162.69 142.682 165.817 146.498L166.591 145.864L167.364 145.23C163.885 140.985 159.063 138.38 152.981 137.377L152.818 138.364ZM166.591 145.864L165.82 146.5C168.954 150.296 170.545 155.016 170.545 160.727H171.545H172.545C172.545 154.62 170.833 149.431 167.362 145.227L166.591 145.864ZM171.545 160.727H170.545C170.545 165.594 169.223 169.941 166.584 173.799L167.409 174.364L168.234 174.928C171.11 170.725 172.545 165.982 172.545 160.727H171.545ZM167.409 174.364L166.583 173.8C163.962 177.644 160.374 180.686 155.789 182.919L156.227 183.818L156.665 184.717C161.535 182.345 165.402 179.083 168.235 174.927L167.409 174.364ZM156.227 183.818L155.789 182.919C151.217 185.147 145.992 186.273 140.091 186.273V187.273V188.273C146.251 188.273 151.783 187.096 156.665 184.717L156.227 183.818Z" fill="black" mask="url(#path-1-outside-1_16_4)"/>
<rect x="2" y="2" width="276" height="276" rx="8" stroke="black" stroke-width="4"/>
</svg>
