<svg width="280" height="280" viewBox="0 0 280 280" fill="none" xmlns="http://www.w3.org/2000/svg">
<mask id="path-1-outside-1_16_4" maskUnits="userSpaceOnUse" x="109" y="90" width="62" height="97" fill="black">
<rect fill="white" x="109" y="90" width="62" height="97"/>
<path d="M110.636 186V177.818L141.364 144.182C144.97 140.242 147.939 136.818 150.273 133.909C152.606 130.97 154.333 128.212 155.455 125.636C156.606 123.03 157.182 120.303 157.182 117.455C157.182 114.182 156.394 111.348 154.818 108.955C153.273 106.561 151.152 104.712 148.455 103.409C145.758 102.106 142.727 101.455 139.364 101.455C135.788 101.455 132.667 102.197 130 103.682C127.364 105.136 125.318 107.182 123.864 109.818C122.439 112.455 121.727 115.545 121.727 119.091H111C111 113.636 112.258 108.848 114.773 104.727C117.288 100.606 120.712 97.3939 125.045 95.0909C129.409 92.7879 134.303 91.6364 139.727 91.6364C145.182 91.6364 150.015 92.7879 154.227 95.0909C158.439 97.3939 161.742 100.5 164.136 104.409C166.53 108.318 167.727 112.667 167.727 117.455C167.727 120.879 167.106 124.227 165.864 127.5C164.652 130.742 162.53 134.364 159.5 138.364C156.5 142.333 152.333 147.182 147 152.909L126.091 175.273V176H169.364V186H110.636Z"/>
</mask>
<path d="M110.636 186V177.818L141.364 144.182C144.97 140.242 147.939 136.818 150.273 133.909C152.606 130.97 154.333 128.212 155.455 125.636C156.606 123.03 157.182 120.303 157.182 117.455C157.182 114.182 156.394 111.348 154.818 108.955C153.273 106.561 151.152 104.712 148.455 103.409C145.758 102.106 142.727 101.455 139.364 101.455C135.788 101.455 132.667 102.197 130 103.682C127.364 105.136 125.318 107.182 123.864 109.818C122.439 112.455 121.727 115.545 121.727 119.091H111C111 113.636 112.258 108.848 114.773 104.727C117.288 100.606 120.712 97.3939 125.045 95.0909C129.409 92.7879 134.303 91.6364 139.727 91.6364C145.182 91.6364 150.015 92.7879 154.227 95.0909C158.439 97.3939 161.742 100.5 164.136 104.409C166.53 108.318 167.727 112.667 167.727 117.455C167.727 120.879 167.106 124.227 165.864 127.5C164.652 130.742 162.53 134.364 159.5 138.364C156.5 142.333 152.333 147.182 147 152.909L126.091 175.273V176H169.364V186H110.636Z" fill="black"/>
<path d="M110.636 186H109.636V187H110.636V186ZM110.636 177.818L109.898 177.144L109.636 177.43V177.818H110.636ZM141.364 144.182L140.626 143.507L140.625 143.507L141.364 144.182ZM150.273 133.909L151.053 134.535L151.056 134.531L150.273 133.909ZM155.455 125.636L154.54 125.232L154.538 125.237L155.455 125.636ZM154.818 108.955L153.978 109.497L153.983 109.504L154.818 108.955ZM148.455 103.409L148.89 102.509L148.89 102.509L148.455 103.409ZM130 103.682L130.483 104.557L130.486 104.556L130 103.682ZM123.864 109.818L122.988 109.335L122.984 109.343L123.864 109.818ZM121.727 119.091V120.091H122.727V119.091H121.727ZM111 119.091H110V120.091H111V119.091ZM114.773 104.727L115.626 105.248L115.626 105.248L114.773 104.727ZM125.045 95.0909L124.579 94.2065L124.576 94.2079L125.045 95.0909ZM154.227 95.0909L154.707 94.2135L154.707 94.2135L154.227 95.0909ZM164.136 104.409L163.284 104.931L164.136 104.409ZM165.864 127.5L164.929 127.145L164.927 127.15L165.864 127.5ZM159.5 138.364L158.703 137.76L158.702 137.761L159.5 138.364ZM147 152.909L147.73 153.592L147.732 153.591L147 152.909ZM126.091 175.273L125.36 174.59L125.091 174.878V175.273H126.091ZM126.091 176H125.091V177H126.091V176ZM169.364 176H170.364V175H169.364V176ZM169.364 186V187H170.364V186H169.364ZM110.636 186H111.636V177.818H110.636H109.636V186H110.636ZM110.636 177.818L111.375 178.493L142.102 144.856L141.364 144.182L140.625 143.507L109.898 177.144L110.636 177.818ZM141.364 144.182L142.101 144.857C145.716 140.908 148.701 137.466 151.053 134.535L150.273 133.909L149.493 133.283C147.177 136.17 144.223 139.577 140.626 143.507L141.364 144.182ZM150.273 133.909L151.056 134.531C153.426 131.545 155.206 128.712 156.371 126.035L155.455 125.636L154.538 125.237C153.461 127.712 151.786 130.395 149.49 133.287L150.273 133.909ZM155.455 125.636L156.369 126.041C157.577 123.307 158.182 120.442 158.182 117.455H157.182H156.182C156.182 120.164 155.635 122.753 154.54 125.232L155.455 125.636ZM157.182 117.455H158.182C158.182 114.015 157.351 110.984 155.653 108.405L154.818 108.955L153.983 109.504C155.437 111.713 156.182 114.349 156.182 117.455H157.182ZM154.818 108.955L155.658 108.412C154.008 105.856 151.743 103.887 148.89 102.509L148.455 103.409L148.02 104.31C150.56 105.537 152.537 107.265 153.978 109.497L154.818 108.955ZM148.455 103.409L148.89 102.509C146.041 101.132 142.859 100.455 139.364 100.455V101.455V102.455C142.595 102.455 145.474 103.08 148.02 104.31L148.455 103.409ZM139.364 101.455V100.455C135.647 100.455 132.353 101.227 129.514 102.808L130 103.682L130.486 104.556C132.981 103.167 135.929 102.455 139.364 102.455V101.455ZM130 103.682L129.517 102.806C126.715 104.352 124.534 106.533 122.988 109.335L123.864 109.818L124.739 110.301C126.103 107.83 128.012 105.921 130.483 104.557L130 103.682ZM123.864 109.818L122.984 109.343C121.467 112.15 120.727 115.41 120.727 119.091H121.727H122.727C122.727 115.681 123.411 112.759 124.743 110.293L123.864 109.818ZM121.727 119.091V118.091H111V119.091V120.091H121.727V119.091ZM111 119.091H112C112 113.796 113.219 109.193 115.626 105.248L114.773 104.727L113.919 104.206C111.296 108.504 110 113.477 110 119.091H111ZM114.773 104.727L115.626 105.248C118.047 101.283 121.337 98.1943 125.515 95.9739L125.045 95.0909L124.576 94.2079C120.087 96.5935 116.529 99.9296 113.919 104.206L114.773 104.727ZM125.045 95.0909L125.512 95.9753C129.718 93.7555 134.449 92.6364 139.727 92.6364V91.6364V90.6364C134.157 90.6364 129.1 91.8202 124.579 94.2065L125.045 95.0909ZM139.727 91.6364V92.6364C145.037 92.6364 149.702 93.7561 153.748 95.9683L154.227 95.0909L154.707 94.2135C150.329 91.8196 145.326 90.6364 139.727 90.6364V91.6364ZM154.227 95.0909L153.748 95.9683C157.814 98.1917 160.985 101.178 163.284 104.931L164.136 104.409L164.989 103.887C162.5 99.8217 159.065 96.5962 154.707 94.2135L154.227 95.0909ZM164.136 104.409L163.284 104.931C165.577 108.676 166.727 112.842 166.727 117.455H167.727H168.727C168.727 112.491 167.484 107.96 164.989 103.887L164.136 104.409ZM167.727 117.455H166.727C166.727 120.755 166.129 123.983 164.929 127.145L165.864 127.5L166.799 127.855C168.083 124.471 168.727 121.003 168.727 117.455H167.727ZM165.864 127.5L164.927 127.15C163.76 130.271 161.698 133.806 158.703 137.76L159.5 138.364L160.297 138.967C163.362 134.922 165.543 131.214 166.8 127.85L165.864 127.5ZM159.5 138.364L158.702 137.761C155.731 141.692 151.59 146.513 146.268 152.228L147 152.909L147.732 153.591C153.077 147.851 157.269 142.974 160.298 138.967L159.5 138.364ZM147 152.909L146.27 152.226L125.36 174.59L126.091 175.273L126.821 175.956L147.73 153.592L147 152.909ZM126.091 175.273H125.091V176H126.091H127.091V175.273H126.091ZM126.091 176V177H169.364V176V175H126.091V176ZM169.364 176H168.364V186H169.364H170.364V176H169.364ZM169.364 186V185H110.636V186V187H169.364V186Z" fill="black" mask="url(#path-1-outside-1_16_4)"/>
<rect x="2" y="2" width="276" height="276" rx="8" stroke="black" stroke-width="4"/>
</svg>
