<svg width="280" height="280" viewBox="0 0 280 280" fill="none" xmlns="http://www.w3.org/2000/svg">
<mask id="path-1-outside-1_16_4" maskUnits="userSpaceOnUse" x="116" y="91" width="38" height="96" fill="black">
<rect fill="white" x="116" y="91" width="38" height="96"/>
<path d="M152.364 92.9091V186H141.091V104.727H140.545L117.818 119.818V108.364L141.091 92.9091H152.364Z"/>
</mask>
<path d="M152.364 92.9091V186H141.091V104.727H140.545L117.818 119.818V108.364L141.091 92.9091H152.364Z" fill="black"/>
<path d="M152.364 92.9091H153.364V91.9091H152.364V92.9091ZM152.364 186V187H153.364V186H152.364ZM141.091 186H140.091V187H141.091V186ZM141.091 104.727H142.091V103.727H141.091V104.727ZM140.545 104.727V103.727H140.244L139.992 103.894L140.545 104.727ZM117.818 119.818H116.818V121.683L118.371 120.651L117.818 119.818ZM117.818 108.364L117.265 107.531L116.818 107.827V108.364H117.818ZM141.091 92.9091V91.9091H140.789L140.538 92.076L141.091 92.9091ZM152.364 92.9091H151.364V186H152.364H153.364V92.9091H152.364ZM152.364 186V185H141.091V186V187H152.364V186ZM141.091 186H142.091V104.727H141.091H140.091V186H141.091ZM141.091 104.727V103.727H140.545V104.727V105.727H141.091V104.727ZM140.545 104.727L139.992 103.894L117.265 118.985L117.818 119.818L118.371 120.651L141.099 105.56L140.545 104.727ZM117.818 119.818H118.818V108.364H117.818H116.818V119.818H117.818ZM117.818 108.364L118.371 109.197L141.644 93.7421L141.091 92.9091L140.538 92.076L117.265 107.531L117.818 108.364ZM141.091 92.9091V93.9091H152.364V92.9091V91.9091H141.091V92.9091Z" fill="black" mask="url(#path-1-outside-1_16_4)"/>
<rect x="2" y="2" width="276" height="276" rx="8" stroke="black" stroke-width="4"/>
</svg>
